<svg version="1.2" baseProfile="tiny-ps" xmlns="http://www.w3.org/2000/svg" viewBox="0 0 200 200" width="50" height="50">
	<title>Logo_Masjid Imam Syafi'i</title>
	<style>
		tspan { white-space:pre }
		.shp0 { fill: #960000 } 
	</style>
	<path fill-rule="evenodd" class="shp0" d="M83.41 50.59L98.59 35.41C99.37 34.63 100.63 34.63 101.41 35.41L116.59 50.59C117.37 51.37 118 52.9 118 54L118 88C118 89.1 118.78 90.44 119.74 90.99L164 116.11L164 92C164 90.9 164.63 89.37 165.41 88.59L176.59 77.41C177.37 76.63 178.63 76.63 179.41 77.41L190.59 88.59C191.37 89.37 192 90.9 192 92L192 140L199.41 146.48C191.94 145.26 184.27 144.63 176.46 144.63C148.25 144.63 122 152.89 100 167.13L100 38L85 53L85 158.68C66.44 149.67 45.59 144.63 23.54 144.63C23.03 144.63 22.51 144.63 22 144.63L22 81L11 92L11 145.17C7.49 145.48 4.02 145.92 0.59 146.48L8 140L8 92C8 90.9 8.63 89.37 9.41 88.59L20.59 77.41C21.37 76.63 22.63 76.63 23.41 77.41L34.59 88.59C35.37 89.37 36 90.9 36 92L36 116.11L80.26 90.99C81.22 90.44 82 89.1 82 88L82 54C82 52.9 82.63 51.37 83.41 50.59ZM178 81L167 92L167 117.81L178 124.05L178 81Z" />
</svg>